<svg width="24" height="24" viewBox="0 0 24 24" fill="none" xmlns="http://www.w3.org/2000/svg">
<path d="M23.3209 8.0308C21.678 3.36459 17.2289 0.00478019 12.0093 0H12H11.9907C6.76627 0.00450714 2.31674 3.36014 0.678319 8.0308C0.673812 8.04013 0.673812 8.04915 0.668983 8.05849C0.240167 9.2954 0 10.6202 0 12C0 13.3798 0.235338 14.7046 0.669305 15.9415C0.673812 15.9508 0.673812 15.9599 0.678641 15.9692C2.32184 20.6399 6.77096 23.9952 11.991 24H12.0003H12.0097C17.2341 23.9955 21.6836 20.6399 23.322 15.9692C23.3265 15.9599 23.3265 15.9508 23.3313 15.9415C23.7598 14.7046 24 13.3798 24 12C24 10.6202 23.7647 9.2954 23.3307 8.05849C23.3262 8.04915 23.3262 8.04013 23.3214 8.0308H23.3209ZM0.92281 12C0.92281 10.8462 1.10277 9.72933 1.4305 8.6814H5.17818C4.99822 9.73831 4.90132 10.8506 4.90132 12C4.90132 13.1494 4.99822 14.2616 5.17818 15.3186H1.4305C1.10277 14.2707 0.92281 13.1538 0.92281 12ZM5.82397 12C5.82397 10.8462 5.92539 9.72933 6.10535 8.6814H11.5377V15.3182L6.10568 15.3185C5.92089 14.2706 5.82398 13.1538 5.82398 11.9999L5.82397 12ZM17.7033 7.75841H12.4606V0.959993C14.8282 1.27389 16.8312 3.99236 17.7033 7.75841ZM11.5373 0.959993V7.75841H6.29465C7.16677 3.99236 9.16988 1.27384 11.5373 0.959993ZM11.5373 16.2418V23.0402C9.1698 22.7263 7.16677 20.0078 6.29432 16.2418H11.5373ZM12.4606 23.0402V16.2418H17.7037C16.8312 20.0078 14.8281 22.7263 12.4606 23.0402ZM12.4606 15.3187V8.68156H17.8926C18.0771 9.72917 18.174 10.8463 18.174 12.0002C18.174 13.154 18.0726 14.2708 17.8926 15.3188L12.4606 15.3187ZM18.8205 8.68156H22.5682C22.8956 9.7295 23.0755 10.8463 23.0755 12.0002C23.0755 13.154 22.8956 14.2708 22.5678 15.3188H18.8202C19.0001 14.2619 19.097 13.1496 19.097 12.0002C19.0973 10.8509 19.0004 9.73856 18.8205 8.68156H18.8205ZM22.2265 7.75858H18.636C18.0314 5.05843 16.8683 2.82484 15.3823 1.454C18.4835 2.45108 20.9897 4.77706 22.2266 7.75858H22.2265ZM8.61151 1.454C7.12548 2.81998 5.96227 5.05843 5.35775 7.75858H1.76724C3.00858 4.77706 5.51492 2.45108 8.6116 1.454H8.61151ZM1.77169 16.2421H5.3622C5.96679 18.9422 7.12993 21.1758 8.61596 22.5467C5.51475 21.5496 3.0085 19.2236 1.77161 16.2421H1.77169ZM15.3867 22.5467C16.8728 21.1807 18.036 18.9422 18.6405 16.2421H22.231C20.9897 19.2236 18.4833 21.5496 15.3866 22.5467H15.3867Z" fill="white"/>
</svg>
